/* XPM */
static char * upper_right_corner_xpm[] = {
"8 8 3 1",
" 	c #2121FF",
".	c #000000",
"+	c #000001",
"    ....",
"...+  ..",
".....+ .",
"   ... .",
"..+ ..+ ",
"...+ .. ",
".... .. ",
".... .. "};
