/* XPM */
static char * lower_left_corner_xpm[] = {
"8 8 3 1",
" 	c #2121FF",
".	c #000000",
"+	c #000001",
" .. ....",
" .. ....",
" .. +...",
" +.. +..",
". ...   ",
". +.....",
"..  +...",
"....    "};
