/* XPM */
static char * inner_bottom_left_corner_xpm[] = {
"8 8 3 1",
" 	c #000000",
".	c #2121FF",
"+	c #000001",
"    .   ",
"    .+  ",
"     .+ ",
"      ..",
"        ",
"        ",
"        ",
"        "};
