/* XPM */
static char *_e9bc14acbb44587bdcbc62157915010TXdK25jg8mkISsmv[] = {
/* columns rows colors chars-per-pixel */
"123 123 9 1 ",
"  c #000150",
". c green",
"X c #002046",
"o c #00403C",
"O c #00DF0A",
"+ c #006032",
"@ c #009F1E",
"# c #008028",
"$ c #00BF14",
/* pixels */
"                                                                                                                           ",
"                                                                                                                           ",
"                                                                                                                           ",
"                                                                                                                           ",
"                                                                                                                           ",
"                                                                                                                           ",
"                                                                                                                           ",
"                                                                                                                           ",
"                                                                                                                           ",
"                                                                                                                           ",
"                                                                                                                           ",
"                                                                                                                           ",
"                                                                                                                           ",
"                                                                                                                           ",
"                                                                                                                           ",
"                                                                                                                           ",
"                                                                                                                           ",
"                                                                                                                           ",
"                                                                                                                           ",
"                                                                                                                           ",
"                                                                                                                           ",
"                                                                                                                           ",
"                                                                                                                           ",
"                                                                                                                           ",
"                                                                                                                           ",
"                                                                                                                           ",
"                                                                                                                           ",
"                                                                                                                           ",
"                                                                                                                           ",
"                                                                                                                           ",
"                                                                                                                           ",
"                                                                                                                           ",
"                                                                                                                           ",
"                                                                                                                           ",
"                                                                                                                           ",
"                                                                                                                           ",
"                                                                                                                           ",
"                                                                                                                           ",
"                                                                                                                           ",
"                                                                                                                           ",
"                                                                                                                           ",
"                                                                                                                           ",
"                                                                                                                           ",
"                                                                                                                           ",
"                                                                                                                           ",
"                                                                                                                           ",
"                                                                                                                           ",
"                                                                                                                           ",
"                                                                                                                           ",
"                                                                                                                           ",
"                                                                                                                           ",
"                                                                                                                           ",
"                                                                                                                           ",
"                                                                                                                           ",
"                                                                                                                           ",
"                                                                                                                           ",
"                                                                                                                           ",
"                   XooX           ooo         XooX          XooX           XooX                      oooX                  ",
"               O+X@.OO.Oo      X@.O$O.@X    X$.$$OO# .o   X$.$$OO# .o    X$.O$OO+     O+  +$O.o    @.O$O..$                ",
"               O#O#    #.o    XO@X   X$OX  XO@X   X$$.o  XO@X   X$$.o   o.#    +.+    O+X$O#oX    $Oo    X#                ",
"               O.+      #O    $@       O@  @$       $.o  @$       $.o   O#      +O    O#$@       X.o                       ",
"               O$        .+  o.X       o.X .+       o.o  .+       o.o  +.        O+   OO@        o.                        ",
"               O#        @@  @$         .+X.X       X.o X.X       X.o  @$        @@   O.X        X.+                       ",
"               O+        #$  $@         $@ .o       o.X  .o       o.X  $#        #$   O$          #.#X                     ",
"               O+        #O  O#         @@ $@       @O   $@       @O   OO$$$$$$$$O$   O#           +$.O@o                  ",
"               O+        #O  O#         $@ X.#X    #.o   X.#X    #.o   O@oooooooooo   O#             X+@.OX                ",
"               O+        #$  $@         $@ o.$O$@$.$o    o.$O$@$.$o    $@             O#                X$OX               ",
"               O#        $@  #$         .+ @# XoooX      @# XoooX      @$             O#                 X.+               ",
"               O$        .+  o.X       o.X $@            $@            o.X            O#                  O#               ",
"               O.#      @O    $$       O@  o.$#+++oX     o.$#+++oX      $$            O#                 X.+               ",
"               O#O@X  X@.o    XO$X   o$$    X+@@$$O.$X    X+@@$$O.$X    XO$o    X#    O#         X@o    o$O                ",
"               O+X@.OO.$o      X@.OOO.#            X$.X          X$.X    X@.O$O.O@    O#          #O.OO..@X                ",
"               O+   ooX           ooX                O#            O#       XooX                     Xoo                   ",
"               O+                                    @@            @@                                                      ",
"               O+                                    $#            $#                                                      ",
"               O+                                   +.X           +.X                                                      ",
"               O+                         XO#X    X@.+  XO#X    X@.+                                                       ",
"               O+                          +@O.OO..@o    +@O.OO..@o                                                        ",
"                                              XXXX          XXXX                                                           ",
"                                                                                                                           ",
"                                                                                                                           ",
"                                                                                                                           ",
"                                                                                                                           ",
"                                                                                                                           ",
"                                                                                                                           ",
"                                                                                                                           ",
"                                                                                                                           ",
"                                                                                                                           ",
"                                                                                                                           ",
"                                                                                                                           ",
"                                                                                                                           ",
"                                                                                                                           ",
"                                                                                                                           ",
"                                                                                                                           ",
"                                                                                                                           ",
"                                                                                                                           ",
"                                                                                                                           ",
"                                                                                                                           ",
"                                                                                                                           ",
"                                                                                                                           ",
"                                                                                                                           ",
"                                                                                                                           ",
"                                                                                                                           ",
"                                                                                                                           ",
"                                                                                                                           ",
"                                                                                                                           ",
"                                                                                                                           ",
"                                                                                                                           ",
"                                                                                                                           ",
"                                                                                                                           ",
"                                                                                                                           ",
"                                                                                                                           ",
"                                                                                                                           ",
"                                                                                                                           ",
"                                                                                                                           ",
"                                                                                                                           ",
"                                                                                                                           ",
"                                                                                                                           ",
"                                                                                                                           ",
"                                                                                                                           ",
"                                                                                                                           ",
"                                                                                                                           ",
"                                                                                                                           "
};
