/* XPM */
static char * outer_right_wall_xpm[] = {
"8 8 2 1",
" 	c #000000",
".	c #2121FF",
"    .  .",
"    .  .",
"    .  .",
"    .  .",
"    .  .",
"    .  .",
"    .  .",
"    .  ."};
