/* XPM */
static char * outer_upper_wall_xpm[] = {
"8 8 2 1",
" 	c #2121FF",
".	c #000000",
"        ",
"........",
"........",
"        ",
"........",
"........",
"........",
"........"};
