/* XPM */
static char *c104fe9211ac4f33b7f9096923a2e7b2rTKZQj9D5udlnj6j[] = {
/* columns rows colors chars-per-pixel */
"32 32 2 1 ",
"  c black",
". c #2121FF",
/* pixels */
"   ..........................   ",
"  .                          .  ",
" .                            . ",
".                              .",
".                              .",
".       ................       .",
".      .                .      .",
".     .                  .     .",
".    .                    .    .",
".    .                    .    .",
".    .                    .    .",
".    .                    .    .",
".    .                    .    .",
".    .                    .    .",
".    .                    .    .",
".    .                    .    .",
".    .                    .    .",
".    .                    .    .",
".    .                    .    .",
".    .                    .    .",
".    .                    .    .",
".    .                    .    .",
".    .                    .    .",
".    .                    .    .",
".     .                  .     .",
".      .                .      .",
".       ................       .",
".                              .",
".                              .",
" .                            . ",
"  .                          .  ",
"   ..........................   "
};
