/* XPM */
static char * coin_xpm[] = {
"8 8 3 1",
" 	c #000000",
".	c #FFB8AE",
"+	c #FFB9AF",
"        ",
"        ",
"        ",
"   .+   ",
"   ..   ",
"        ",
"        ",
"        "};
