/* XPM */
static char *checker_xpm[] = {
/* columns rows colors chars-per-pixel */
"16 16 2 1",
"  c #FF0000",  /* Red */
". c #0000FF",  /* Blue */
/* pixels */
" . . . . . . . .",
". . . . . . . . ",
" . . . . . . . .",
". . . . . . . . ",
" . . . . . . . .",
". . . . . . . . ",
" . . . . . . . .",
". . . . . . . . ",
" . . . . . . . .",
". . . . . . . . ",
" . . . . . . . .",
". . . . . . . . ",
" . . . . . . . .",
". . . . . . . . ",
" . . . . . . . .",
". . . . . . . . "
};
