/* XPM */
static char *d15b9eec26d64249b54b41ba486579a334gcX052TOBRS3Io[] = {
/* columns rows colors chars-per-pixel */
"32 32 197 2 ",
"   c black",
".  c #1C1F21",
"X  c #1D2022",
"o  c #2F2A26",
"O  c #222628",
"+  c #24292B",
"@  c #292C2C",
"#  c #232526",
"$  c #332D2A",
"%  c #342B26",
"&  c #38322B",
"*  c #2A2E31",
"=  c #232E31",
"-  c #2D3134",
";  c #2C393C",
":  c #313537",
">  c #441E0B",
",  c #45200C",
"<  c #55311F",
"1  c #502814",
"2  c #7A2F07",
"3  c #762C05",
"4  c #6C310C",
"5  c #7E330C",
"6  c #753919",
"7  c #432C21",
"8  c #7A3F20",
"9  c #6D462F",
"0  c #7B4121",
"q  c #7E4D30",
"w  c #744A33",
"e  c #363F40",
"r  c #254E4E",
"t  c #3B4C50",
"y  c #245253",
"u  c #295757",
"i  c #365556",
"p  c #3D5E5F",
"a  c #394345",
"s  c #2E6667",
"d  c #396567",
"f  c #3B7171",
"g  c #415053",
"h  c #654F44",
"j  c #755747",
"k  c #6D5E55",
"l  c #695044",
"z  c #64614D",
"x  c #72655A",
"c  c #4D676C",
"v  c #4D666A",
"b  c #496E72",
"n  c #497175",
"m  c #47787B",
"M  c #567379",
"N  c #5B7778",
"B  c #5C7167",
"V  c #777767",
"C  c #6B7978",
"Z  c #717C7D",
"A  c #71706B",
"S  c #83350C",
"D  c #8A390F",
"F  c #833711",
"G  c #883B15",
"H  c #8B441C",
"J  c #94431B",
"K  c #9B461C",
"L  c #97481F",
"P  c #9D481F",
"I  c #974216",
"U  c #A2491F",
"Y  c #AA4D1E",
"T  c #8D4724",
"R  c #884524",
"E  c #944623",
"W  c #954922",
"Q  c #9C4B24",
"!  c #9D4E29",
"~  c #9B4720",
"^  c #8F5231",
"/  c #9E5534",
"(  c #9B593C",
")  c #A24C24",
"_  c #A84E20",
"`  c #A34E29",
"'  c #AA4F28",
"]  c #A85027",
"[  c #A3522B",
"{  c #AC522A",
"}  c #A85D2A",
"|  c #B35525",
" . c #BD5C2C",
".. c #B5582B",
"X. c #AB5C32",
"o. c #A85936",
"O. c #AB612D",
"+. c #BC6238",
"@. c #BC6137",
"#. c #C15E2B",
"$. c #C6612D",
"%. c #C46435",
"&. c #C66538",
"*. c #CA6639",
"=. c #C5683C",
"-. c #CC6735",
";. c #D56C36",
":. c #D86D37",
">. c #D56D3A",
",. c #D86C39",
"<. c #D6703F",
"1. c #DB723E",
"2. c #E5753C",
"3. c #836850",
"4. c #907C55",
"5. c #AA6749",
"6. c #B96844",
"7. c #AB755C",
"8. c #BB7253",
"9. c #C26945",
"0. c #C96C44",
"q. c #C97349",
"w. c #D57344",
"e. c #DD7341",
"r. c #D77749",
"t. c #C47B59",
"y. c #C17655",
"u. c #E07441",
"i. c #E87C45",
"p. c #F17C41",
"a. c #AB8152",
"s. c #BA8167",
"d. c #B79967",
"f. c #CA8756",
"g. c #C78B55",
"h. c #ED844B",
"j. c #FC8547",
"k. c #FD8649",
"l. c #F8884A",
"z. c #E49455",
"x. c #FA9956",
"c. c #CC9A64",
"v. c #C9A066",
"b. c #E5A769",
"n. c #ECA968",
"m. c #E6A565",
"M. c #F6B069",
"N. c #477E82",
"B. c #4D7E82",
"V. c #527D82",
"C. c #2E8281",
"Z. c #388687",
"A. c #3B9B9A",
"S. c #428385",
"D. c #4F898D",
"F. c #4B8589",
"G. c #558282",
"H. c #51908F",
"J. c #4D8C91",
"K. c #548D92",
"L. c #4D9394",
"P. c #469395",
"I. c #599E9E",
"U. c #648C8C",
"Y. c #678F96",
"T. c #6B969D",
"R. c #6D9A9C",
"E. c #6A9297",
"W. c #6A9AA1",
"Q. c #4CA7A9",
"!. c #49A4A5",
"~. c #5EAEB3",
"^. c #56B9BC",
"/. c #65A5AB",
"(. c #67A8AE",
"). c #65A5A9",
"_. c #67ABB1",
"`. c #63B1B6",
"'. c #61B9BE",
"]. c #65B4B9",
"[. c #5FBFC2",
"{. c #61BDC1",
"}. c #5DC3C6",
"|. c #5EC6CA",
" X c #5DC8CC",
".X c #55C6C8",
"XX c #5BCED1",
"oX c #5AD2D5",
"OX c #59D6D9",
"+X c #59DADC",
"@X c #57D5D7",
"#X c #60C0C4",
"$X c #56DFE2",
"%X c #54E7E9",
"&X c #868F90",
"*X c #A7978E",
"=X c #9BA6A5",
/* pixels */
"                          f s s s & T X.H Q 7.                  ",
"                  R.I.!.Q.XX|.(.V w.x.z.Q e.` 6.                ",
"              f ^.oX}.W.E.F.P.9 p.x.z.r.L u.] ;./ *X            ",
"          H..X|.T.E.B.s X + o H k.M.O.e.P u.] >.! B G.          ",
"        L./.T./.Z.+ O + * * 7 ;.k.n.} u.U e.] ;.[ 4 U.L.        ",
"      S. X_.U.t O * * * * % H p.x.f.P u.U e.Q :.] | 3.|.m       ",
"    M ^.W.K.= + * * * * * 7 Y j.x.f.P u.U w.Q :.{ ;.^ E.^.C     ",
"  B !._.Y.; O * * * * * $ 0 2.k.m.q.) e.U e.` :.{ ;.X.A `.A.Z   ",
"  A.{.'.d O * * * * * * $ L k.k.b.0.U w.P e.` :.{ ;.&.z ~.#XC.  ",
"  A.].T.; + * * * * * * $ L j.j.m.9.P w.~ e.` :.{ ;.*., M {.C.  ",
"y oX'.N.X * * * * * * * $ L 2.| _ _ I ..I *.E ;.! ;.@.> J.'.+Xi ",
"y |./.n . * * * * * * * $ L $.;.9.s.q.=. .$.P U G ;.+.> V./.XXi ",
"y {.T.c . * * * * * * * $ L j.$.2 E ! 5.8.8.t.w.&.| Y 1 N T. Xi ",
"y %XOXP.. * * * * * * * $ L k.k.b.Q S D 3 F [ o.s.6.y.X.).OX%Xi ",
"y {.T.v . - - * * * * * $ L k.h.c.0.U >.J | 5 D 5 F / R C T. Xi ",
"r }.).n O @ + - @ - - * $ T i.h.g.6.E w.L <.! ;.E  .K > D.].+Xi ",
"y }.K.b O @ + : + * - - o W i.h.a.j q w.L e.` ;.! ;.+.> D.`.OXi ",
"u {.Y.v X - + - - - * - % W i.h.4.C k w.~ u.` >.` ;.&.> M T. Xi ",
"u %X.XS.# - - - * - * - $ R i.l.c.k w r.) u.] ,.] :.*., Q.+X%Xi ",
"y {.T.c . * * * * * * * $ L k.k.n.l 6 u.U 1.` ,.{ ;.*.> M T. Xi ",
"y  X(.n . * * * * * * * $ W k.k.n.l 8 u.) 1.Q ,.[ ;.+.> V.(.oXi ",
"y oX'.N.X * * * * * * * $ L k.k.b.h 0 u.) e.' >.! :.*.> J.^.+Xi ",
"y {.T.c X * * * * * * * $ L k.k.d.&Xx r.P e.] ,.[ :.*.> M T. Xi ",
"y +X}.F.X * * * * * * * $ W k.k.v.A j w.P 1.` ,.{ ;.&., L.}.$Xi ",
"y }.).b . * * * * * * * $ L k.k.m.6.P e.~ w.Q >.` >.+.> V.).XXi ",
"y [.R.c . * * * * * * * $ L k.k.n.0.U u.) <.Q ;.J | | G x T. Xi ",
"y OX{.S.. * * * * * * * $ W k.k.n.9.~ -.G  .|  .&.=.t.6.q `.+Xi ",
"y {.T.c . * * * * * * * $ L k.1.g.` K  .>.q.y.q.7.o./ 4 A T.|.i ",
"y  X(.n . * * * * * * * $ L ;.#.%.q.r.t.5.5.( G 5 S 5 > G.(.oXi ",
"y XX`.m . * * * * * * * $ L -.-.X.5.T G 2 S 2  .L ;.&.> D.`.OXi ",
"y {.T.c . * * * * * * * $ L j.;.H F S ..I e.' :.{ ;.%.> M T. Xi ",
"&Xp g e # @ @ @ @ @ @ @ % L k.j.m.0.P u.U e.` :.{ ;.+.< a g d =X"
};
