/* XPM */
static char *_a5df0ff5874457ceccfbf7eef2b500eGE8CCsXUPubmxiEQ[] = {
/* columns rows colors chars-per-pixel */
"32 32 189 2 ",
"   c black",
".  c #3B1E0E",
"X  c #341F14",
"o  c #3B2317",
"O  c #2F2A26",
"+  c #322B26",
"@  c #383936",
"#  c #461E0A",
"$  c #44200D",
"%  c #49220D",
"&  c #56240A",
"*  c #5A270C",
"=  c #522107",
"-  c #4B2511",
";  c #402A1F",
":  c #542710",
">  c #652606",
",  c #682705",
"<  c #672A09",
"1  c #6E300F",
"2  c #7E330C",
"3  c #75300D",
"4  c #6C2F11",
"5  c #7B3614",
"6  c #7C3815",
"7  c #793A1A",
"8  c #693B25",
"9  c #724027",
"0  c #7E5536",
"q  c #353E40",
"w  c #3A4447",
"e  c #255757",
"r  c #255857",
"t  c #365151",
"y  c #385657",
"u  c #3C5B5C",
"i  c #2E6768",
"p  c #2E6868",
"a  c #3D6766",
"s  c #3D726E",
"d  c #3C7171",
"f  c #425052",
"g  c #495352",
"h  c #494C48",
"j  c #795E51",
"k  c #695E58",
"l  c #6C645E",
"z  c #796556",
"x  c #4C666C",
"c  c #416566",
"v  c #4A6D71",
"b  c #447576",
"n  c #497175",
"m  c #467A7D",
"M  c #56737A",
"N  c #567777",
"B  c #5B6A6A",
"V  c #6E6A61",
"C  c #6C736D",
"Z  c #717D7D",
"A  c #8C3B13",
"S  c #843913",
"D  c #933E13",
"F  c #84370D",
"G  c #8C431E",
"H  c #994317",
"J  c #94421A",
"K  c #9C471F",
"L  c #9C481F",
"P  c #A44A1C",
"I  c #A84D1E",
"U  c #8A4A2B",
"Y  c #944722",
"T  c #9C4D28",
"R  c #984A24",
"E  c #835233",
"W  c #955232",
"Q  c #9A5332",
"!  c #9C5A32",
"~  c #A94F21",
"^  c #AB5123",
"/  c #A4532D",
"(  c #AB552E",
")  c #B35526",
"_  c #B45A2E",
"`  c #BB5C2D",
"'  c #B1572F",
"]  c #A45834",
"[  c #AB5A36",
"{  c #A45C3D",
"}  c #AD5D3A",
"|  c #A25636",
" . c #BB5E33",
".. c #B35E3B",
"X. c #B65F36",
"o. c #B4623D",
"O. c #BD633C",
"+. c #BE693E",
"@. c #C66638",
"#. c #D56F3E",
"$. c #DF743F",
"%. c #875C49",
"&. c #975C43",
"*. c #A35E41",
"=. c #80634F",
"-. c #AE6344",
";. c #B36443",
":. c #BB6745",
">. c #BC6845",
",. c #BB6C4B",
"<. c #B46748",
"1. c #B87354",
"2. c #B7765B",
"3. c #B67D66",
"4. c #C36A45",
"5. c #CA6C46",
"6. c #C66E49",
"7. c #D26F45",
"8. c #CF7345",
"9. c #C7734D",
"0. c #C9714B",
"q. c #D37145",
"w. c #D97342",
"e. c #C47C5B",
"r. c #C67754",
"t. c #E27946",
"y. c #E27A48",
"u. c #E97B46",
"i. c #B5826D",
"p. c #457E81",
"a. c #527D81",
"s. c #2E8685",
"d. c #399A9B",
"f. c #438486",
"g. c #528185",
"h. c #52868B",
"j. c #58888B",
"k. c #4F8E91",
"l. c #538F90",
"z. c #439395",
"x. c #4C9394",
"c. c #4D9698",
"v. c #469A9C",
"b. c #599D9E",
"n. c #58959A",
"m. c #668588",
"M. c #668E93",
"N. c #6C959C",
"B. c #699498",
"V. c #759898",
"C. c #5C9EA4",
"Z. c #6A9BA2",
"A. c #609CA1",
"S. c #4FA1A4",
"D. c #49A8A9",
"F. c #51A9AB",
"G. c #4DB1B5",
"H. c #52B6B9",
"J. c #59BABE",
"K. c #65A6AC",
"L. c #69A2A9",
"P. c #64A9AD",
"I. c #68A8AE",
"U. c #66ABB1",
"Y. c #63B1B5",
"T. c #64B4BA",
"R. c #61B9BE",
"E. c #5EC0BE",
"W. c #54BEC1",
"Q. c #61BCC2",
"!. c #5EC3C7",
"~. c #5EC6CB",
"^. c #57CACC",
"/. c #5DC9CC",
"(. c #54C2C3",
"). c #5BCED2",
"_. c #56CED0",
"`. c #4ED3D4",
"'. c #5AD1D5",
"]. c #59D6D9",
"[. c #57DADD",
"{. c #58DADC",
"}. c #57D2D4",
"|. c #61C2C8",
" X c #59DDE1",
".X c #54E8EA",
"XX c #869898",
"oX c #9BA5A6",
"OX c #91A0A1",
/* pixels */
"                        OXd i i p i b oX                        ",
"                  N.b.S.F.^.~.U.U./.^.S.S.b.V.                  ",
"              d J.}.!.Z.N.C.z.x x v.A.N.Z./._.H.s               ",
"          l.^.~.N.B.a.a X % , , , , $ X s g.B.Z./.(.j.          ",
"        c.K.N.K.f.+ % > 2 H @.] ] ] S F > - O z.L.N.P.x.        ",
"      f./.U.M.h < A T } O.^ t.:.:.:.L $.X.R A * g M.U./.m       ",
"    N H.Z.l.+ 1 P w.4.4.@.^ t.:.>.:.K w.5.5.7.A 1 @ n.Z.H.m.    ",
"  B D.U.M.@ > ] P q.5.5.O.^ t.5.5.:.K w.>.5.5.H @.* @ N.Y.d.Z   ",
"  d.Q.R.c : R :.P q.5.5.o.^ t.5.5.:.L w.:.5.5.J t.G - b R.|.s.  ",
"  d.T.N.@ 5 :.:.P q.4.5...^ t.5.5.:.L w.:.4.5.H t.;.4 w N.Q.s.  ",
"e '.J.p.= ^ :.:.P q.:.4...^ u.5.5.4.K w.:.5.7.H y.:.Y # k.R.{.y ",
"e ~.L.n * #.:.:.P q.:.:...^ u.4.4.4.K w.:.>.5.H y.:.} # a.K.).y ",
"e Q.M.=.^ ) ) ) ) ) ) ) ) ) ) ) ) ) ) ) ) ) ) ) ) ) ) ^ z B./.y ",
"e .XE.! q.:.2.1.:.:.,.3.:.:.:.,.i.:.:.>.,.3.:.>.>.i.1.:.0 /..Xy ",
"r Q.B.V 3 2 2 2 2 2 2 2 2 2 2 2 5 6 2 2 2 2 2 2 5 6 2 7 C N.~.y ",
"r '.T.m & @.[ ] H @.X.[ ] J O.{ W | G X.| } } S } Q W . g.P.W.t ",
"r ).T.m * #.-.-.P q.5.>.} U 5.,.{ :.Y o.&.;.<.7 8.;.o.o h.n.G.t ",
"r Q.N.x * o.l k P q.5.5.;./ 8.| -.;.K o.*.;.<.7 w.{ o.$ M j.F.y ",
"e .X Xz.* 5.%.%.P q.>.5.o.R 4.:.6.:.K 5.,.;.*.G u.;.} - v.].`.t ",
"e Q.N.x * w.%.&.P q.:.5.O.^ y.:.7.4.L w.>.5.:.J u.7.X.# M N.~.y ",
"e /.K.n * 7.%.&.P q.:.4.O.^ y.:.7.4.L w.4.5.>.J t.5.X.# g.P.'.y ",
"e '.R.p.* +.z j P q.:.:.O.^ y.>.7.4.L w.5.7.4.J t.5.O.% k.R.{.y ",
"r Q.N.x * @.z j P q.:.:.O.^ y.:.5.:.K w.5.5.5.J t.5...# M N./.y ",
"e {.|.f.* #.;.;.P q.:.:.O.^ y.:.:.:.L w.5.5.4.J t.>.} $ c.!. Xy ",
"e !.L.v * #.:.:.P q.:.>.O.^ t.:.:.:.K t.5.4.5.H t.:.} # a.L.).y ",
"r Q.B.z P ^ ^ ^ I ^ ^ ^ ~ I ^ ^ ^ ^ I ^ ^ ^ ^ I ^ ^ ^ L z N./.y ",
"e ].P.! w.5.r.9.5.5.0.e.5.5.5.6.e.5.5.5.0.e.5.5.5.e.9.5.E Y.[.y ",
"r Q.B.V 3 2 2 2 2 2 2 2 2 2 2 2 2 2 2 2 2 2 2 2 2 2 2 1 C N./.y ",
"e /.I.n & ` ' / D _ / ( T H ` / ( / A _ ( ( ( S  ./ R # g.P.'.y ",
"e ).Y.m * #.5.4.P q.4.5...^ t.5.5.4.K w.4.5.5.J t.:.} $ h.Y.].y ",
"e Q.N.x * #.>.5.P q.5.>...^ u.5.4.5.L w.:.>.:.J t.:.} # M N.~.y ",
"XXu f q ; Q Q W 8 ] Q Q U 9 ] Q Q Q 8 Q Q Q Q 8 ] Q U o w f a oX"
};
