/* XPM */
static char * outer_bottom_left_corner_xpm[] = {
"32 32 2 1",
" 	c #0000FF",
".	c #000000",
" ....... .......................",
" ....... .......................",
" ....... .......................",
" ....... .......................",
" ....... .......................",
" ....... .......................",
" ....... .......................",
" ....... .......................",
" ....... .......................",
" ....... .......................",
" ....... .......................",
" ....... .......................",
" ....... .......................",
" ....... .......................",
" ....... .......................",
" ....... .......................",
" ....... .......................",
" ....... .......................",
" ........ ......................",
" ........ ......................",
" ......... .....................",
" .......... ....................",
" ...........  ..................",
" .............                  ",
" ...............................",
" ...............................",
". ..............................",
". ..............................",
".. .............................",
"... ............................",
"....  ..........................",
"......                          "};
