/* XPM */
static char * outer_upper_left_corner_xpm[] = {
"32 32 2 1",
" 	c #000000",
".	c #0000FF",
"      ..........................",
"    ..                          ",
"   .                            ",
"  .                             ",
" .                              ",
" .                              ",
".                               ",
".                               ",
".             ..................",
".           ..                  ",
".          .                    ",
".         .                     ",
".        .                      ",
".        .                      ",
".       .                       ",
".       .                       ",
".       .                       ",
".       .                       ",
".       .                       ",
".       .                       ",
".       .                       ",
".       .                       ",
".       .                       ",
".       .                       ",
".       .                       ",
".       .                       ",
".       .                       ",
".       .                       ",
".       .                       ",
".       .                       ",
".       .                       ",
".       .                       "};
