/* XPM */
static char *_a8a1cdcc4564413d19ec609134fc960UQHlbpINqSTnENIZ[] = {
/* columns rows colors chars-per-pixel */
"32 32 2 1 ",
"  c black",
". c #2121FF",
/* pixels */
"................................",
"                                ",
"                                ",
"                                ",
"                                ",
"                                ",
"                                ",
"                                ",
"................................",
"                                ",
"                                ",
"                                ",
"                                ",
"                                ",
"                                ",
"                                ",
"                                ",
"                                ",
"                                ",
"                                ",
"                                ",
"                                ",
"                                ",
"                                ",
"                                ",
"                                ",
"                                ",
"                                ",
"                                ",
"                                ",
"                                ",
"                                "
};
