/* XPM */
static char *_f908945b82147189f1081b49585fa0dDtQLUTTw7RgX9JE8[] = {
/* columns rows colors chars-per-pixel */
"32 32 3 1 ",
"  c None",
". c black",
"X c yellow",
/* pixels */
"              ....              ",
"          ....XXXX....          ",
"        ..XXXXXXXXXXXX..        ",
"       .XXXXXXXXXXXXXXXX.       ",
"     ..XXXXXXXXXXXXXXXXXX..     ",
"    .XXXXXXXXXXXXXXXXXXXXXX.    ",
"    .XXXXXXXXXXXXXXXXXXXXXX.    ",
"   .XXXXXXXXXXXXXXXXXXXXXXXX.   ",
"  .XXXXXXXXXXXXXXXXXXXXXXXXXX.  ",
"  .XXXXXXXXXXXXXXXXXXXXXXXXXX.  ",
" .XXXXXXXXXXXXXXXXXXXXXXXXXXXX. ",
" .XXXXXXXXXXXXXXXXXXXXXXXXXX..  ",
" .XXXXXXXXXXXXXXXXXXXXXXX...    ",
".XXXXXXXXXXXXXXXXXXXXX...       ",
".XXXXXXXXXXXXXXXXXXX..          ",
".XXXXXXXXXXXXXXXX...            ",
".XXXXXXXXXXXXXX..               ",
".XXXXXXXXXXXXXXXX...            ",
".XXXXXXXXXXXXXXXXXXX...         ",
" .XXXXXXXXXXXXXXXXXXXXX..       ",
" .XXXXXXXXXXXXXXXXXXXXXXX...    ",
" .XXXXXXXXXXXXXXXXXXXXXXXXXX..  ",
"  .XXXXXXXXXXXXXXXXXXXXXXXXXX.  ",
"  .XXXXXXXXXXXXXXXXXXXXXXXXXX.  ",
"   .XXXXXXXXXXXXXXXXXXXXXXXX.   ",
"    .XXXXXXXXXXXXXXXXXXXXXX.    ",
"    .XXXXXXXXXXXXXXXXXXXXXX.    ",
"     ..XXXXXXXXXXXXXXXXXX..     ",
"       .XXXXXXXXXXXXXXXX.       ",
"        ..XXXXXXXXXXXX..        ",
"          ....XXXX....          ",
"              ....              "
};
