/* XPM */
static char * pellet_xpm[] = {
"8 8 4 1",
" 	c #000000",
".	c #FFB8AE",
"+	c #FFB9AF",
"@	c #010101",
"  .+++@ ",
" .+++++@",
".+++++++",
".+++++++",
".+++++++",
".++++++.",
" .++++. ",
"  ....  "};
