/* XPM */
static char *_62d01c4c71044b3d85d1afbbf3cb9fdRZXVk2VgILCJ53ai[] = {
/* columns rows colors chars-per-pixel */
"32 32 4 1 ",
"  c black",
". c #7C7C7C",
"X c #B2B2B2",
"o c white",
/* pixels */
"         XXXXXXXXXXXXX.         ",
"        XooooooooooooooX        ",
"       XooooooooooooooooX       ",
"      XooooooooooooooooooX      ",
"     XooooooooooooooooooooX     ",
"    XooooooooooooooooooooooX    ",
"   XooooooooooooooooooooooooX   ",
"  XooooooooooooooooooooooooooX  ",
" XooooooooooooooooooooooooooooX ",
"XooooooooooooooooooooooooooooooX",
"XooooooooooooooooooooooooooooooX",
"XooooooooooooooooooooooooooooooX",
"XooooooooooooooooooooooooooooooX",
"XooooooooooooooooooooooooooooooX",
"XooooooooooooooooooooooooooooooX",
"XooooooooooooooooooooooooooooooX",
"XooooooooooooooooooooooooooooooX",
"XooooooooooooooooooooooooooooooX",
"XooooooooooooooooooooooooooooooX",
"XooooooooooooooooooooooooooooooX",
"XooooooooooooooooooooooooooooooX",
"XooooooooooooooooooooooooooooooX",
"XooooooooooooooooooooooooooooooX",
"XooooooooooooooooooooooooooooooX",
" XooooooooooooooooooooooooooooX ",
"  XooooooooooooooooooooooooooX  ",
"   XooooooooooooooooooooooooX   ",
"    XooooooooooooooooooooooX    ",
"     XooooooooooooooooooooX     ",
"      XooooooooooooooooooX      ",
"       XooooooooooooooooX       ",
"        XXXXXXXXXXXXXXXX        "
};
