/* XPM */
static char * vex_outer_upper_right_corner_xpm[] = {
"8 8 3 1",
" 	c #000000",
".	c #2121FF",
"+	c #000001",
"       .",
"       .",
"       .",
"...+   .",
"   .+  .",
"    .  .",
"    .  .",
"    .  ."};
