/* XPM */
static char * vex_outer_bottom_right_corner_xpm[] = {
"8 8 2 1",
" 	c #000000",
".	c #2121FF",
"    .  .",
"    .  .",
"    .  .",
"   .   .",
"...    .",
"       .",
"       .",
"       ."};
