/* XPM */
static char * vex_outer_upper_left_corner_xpm[] = {
"8 8 2 1",
" 	c #2121FF",
".	c #000000",
" .......",
" .......",
" .......",
" ....   ",
" ... ...",
" .. ....",
" .. ....",
" .. ...."};
